<mxfile host="app.diagrams.net" modified="2023-05-31T11:20:14.010Z" agent="Mozilla/5.0 (Windows NT 10.0; Win64; x64; rv:109.0) Gecko/20100101 Firefox/113.0" etag="Y7EQj2rcd6AS129xv9_Z" version="21.3.6" type="device">
  <diagram name="Page-1" id="lD1P7TDORegNlSz0LweX">
    <mxGraphModel dx="989" dy="567" grid="1" gridSize="10" guides="1" tooltips="1" connect="1" arrows="1" fold="1" page="1" pageScale="1" pageWidth="850" pageHeight="1100" math="0" shadow="0">
      <root>
        <mxCell id="0" />
        <mxCell id="1" parent="0" />
        <mxCell id="jBUWxnk9h5pIj459O3R6-1" value="&lt;div&gt;GRU&lt;/div&gt;&lt;div&gt;idx = 0&lt;br&gt;&lt;/div&gt;" style="rounded=0;whiteSpace=wrap;html=1;" parent="1" vertex="1">
          <mxGeometry x="80" y="200" width="120" height="40" as="geometry" />
        </mxCell>
        <mxCell id="jBUWxnk9h5pIj459O3R6-2" value="&lt;div&gt;GRU&lt;/div&gt;&lt;div&gt;idx = 1&lt;br&gt;&lt;/div&gt;" style="rounded=0;whiteSpace=wrap;html=1;" parent="1" vertex="1">
          <mxGeometry x="80" y="280" width="120" height="40" as="geometry" />
        </mxCell>
        <mxCell id="jBUWxnk9h5pIj459O3R6-3" value="&lt;div&gt;GRU&lt;/div&gt;&lt;div&gt;idx = 2&lt;br&gt;&lt;/div&gt;" style="rounded=0;whiteSpace=wrap;html=1;" parent="1" vertex="1">
          <mxGeometry x="80" y="360" width="120" height="40" as="geometry" />
        </mxCell>
        <mxCell id="jBUWxnk9h5pIj459O3R6-4" value="&lt;div&gt;GRU&lt;/div&gt;&lt;div&gt;idx = 63&lt;br&gt;&lt;/div&gt;" style="rounded=0;whiteSpace=wrap;html=1;" parent="1" vertex="1">
          <mxGeometry x="80" y="480" width="120" height="40" as="geometry" />
        </mxCell>
        <mxCell id="jBUWxnk9h5pIj459O3R6-11" value="" style="endArrow=none;dashed=1;html=1;dashPattern=1 3;strokeWidth=2;rounded=0;entryX=0.5;entryY=1;entryDx=0;entryDy=0;exitX=0.5;exitY=0;exitDx=0;exitDy=0;" parent="1" source="jBUWxnk9h5pIj459O3R6-4" target="jBUWxnk9h5pIj459O3R6-3" edge="1">
          <mxGeometry width="50" height="50" relative="1" as="geometry">
            <mxPoint x="400" y="440" as="sourcePoint" />
            <mxPoint x="450" y="390" as="targetPoint" />
          </mxGeometry>
        </mxCell>
        <mxCell id="jBUWxnk9h5pIj459O3R6-19" value="&lt;div&gt;INPUT [64]&lt;/div&gt;&lt;div&gt;1 of&amp;nbsp; 431&lt;br&gt;&lt;/div&gt;" style="rounded=1;whiteSpace=wrap;html=1;" parent="1" vertex="1">
          <mxGeometry x="80" y="40" width="120" height="40" as="geometry" />
        </mxCell>
        <mxCell id="jBUWxnk9h5pIj459O3R6-20" value="" style="shape=flexArrow;endArrow=classic;html=1;rounded=0;exitX=0.5;exitY=1;exitDx=0;exitDy=0;" parent="1" source="jBUWxnk9h5pIj459O3R6-19" edge="1">
          <mxGeometry width="50" height="50" relative="1" as="geometry">
            <mxPoint x="370" y="210" as="sourcePoint" />
            <mxPoint x="140" y="160" as="targetPoint" />
          </mxGeometry>
        </mxCell>
        <mxCell id="jBUWxnk9h5pIj459O3R6-22" value="&lt;div&gt;GRU&lt;/div&gt;&lt;div&gt;idx = 0&lt;br&gt;&lt;/div&gt;" style="rounded=0;whiteSpace=wrap;html=1;" parent="1" vertex="1">
          <mxGeometry x="1340" y="200" width="120" height="40" as="geometry" />
        </mxCell>
        <mxCell id="jBUWxnk9h5pIj459O3R6-23" value="&lt;div&gt;GRU&lt;/div&gt;&lt;div&gt;idx = 1&lt;br&gt;&lt;/div&gt;" style="rounded=0;whiteSpace=wrap;html=1;" parent="1" vertex="1">
          <mxGeometry x="1340" y="280" width="120" height="40" as="geometry" />
        </mxCell>
        <mxCell id="jBUWxnk9h5pIj459O3R6-24" value="&lt;div&gt;GRU&lt;/div&gt;&lt;div&gt;idx = 2&lt;br&gt;&lt;/div&gt;" style="rounded=0;whiteSpace=wrap;html=1;" parent="1" vertex="1">
          <mxGeometry x="1340" y="360" width="120" height="40" as="geometry" />
        </mxCell>
        <mxCell id="jBUWxnk9h5pIj459O3R6-25" value="&lt;div&gt;GRU&lt;/div&gt;&lt;div&gt;idx = 63&lt;br&gt;&lt;/div&gt;" style="rounded=0;whiteSpace=wrap;html=1;" parent="1" vertex="1">
          <mxGeometry x="1340" y="480" width="120" height="40" as="geometry" />
        </mxCell>
        <mxCell id="jBUWxnk9h5pIj459O3R6-30" value="" style="endArrow=none;dashed=1;html=1;dashPattern=1 3;strokeWidth=2;rounded=0;entryX=0.5;entryY=1;entryDx=0;entryDy=0;exitX=0.5;exitY=0;exitDx=0;exitDy=0;" parent="1" source="jBUWxnk9h5pIj459O3R6-25" target="jBUWxnk9h5pIj459O3R6-24" edge="1">
          <mxGeometry width="50" height="50" relative="1" as="geometry">
            <mxPoint x="1660" y="440" as="sourcePoint" />
            <mxPoint x="1710" y="390" as="targetPoint" />
          </mxGeometry>
        </mxCell>
        <mxCell id="jBUWxnk9h5pIj459O3R6-35" value="&lt;div&gt;INPUT [64]&lt;/div&gt;&lt;div&gt;2 of&amp;nbsp; 431&lt;br&gt;&lt;/div&gt;" style="rounded=1;whiteSpace=wrap;html=1;" parent="1" vertex="1">
          <mxGeometry x="1340" y="40" width="120" height="40" as="geometry" />
        </mxCell>
        <mxCell id="jBUWxnk9h5pIj459O3R6-36" value="" style="shape=flexArrow;endArrow=classic;html=1;rounded=0;exitX=0.5;exitY=1;exitDx=0;exitDy=0;" parent="1" source="jBUWxnk9h5pIj459O3R6-35" edge="1">
          <mxGeometry width="50" height="50" relative="1" as="geometry">
            <mxPoint x="1630" y="210" as="sourcePoint" />
            <mxPoint x="1400" y="160" as="targetPoint" />
          </mxGeometry>
        </mxCell>
        <mxCell id="jBUWxnk9h5pIj459O3R6-38" value="SYNC STATE" style="swimlane;whiteSpace=wrap;html=1;" parent="1" vertex="1">
          <mxGeometry x="665" y="280" width="210" height="130" as="geometry" />
        </mxCell>
        <mxCell id="jBUWxnk9h5pIj459O3R6-39" value="&lt;div align=&quot;left&quot;&gt;&lt;font color=&quot;#0000ff&quot;&gt;void&lt;/font&gt; gru_syncState() {&lt;br&gt;&amp;nbsp;&amp;nbsp;&amp;nbsp; &lt;font color=&quot;#330066&quot;&gt;for&lt;/font&gt; (&lt;font color=&quot;#0000ff&quot;&gt;int &lt;/font&gt;i = 0; j &amp;lt; &lt;font color=&quot;#cc0066&quot;&gt;64&lt;/font&gt;; ++i) {&lt;br&gt;&amp;nbsp;&amp;nbsp;&amp;nbsp;&amp;nbsp;&amp;nbsp;&amp;nbsp;&amp;nbsp; &lt;font color=&quot;#994c00&quot;&gt;state&lt;/font&gt;[0][i] = &lt;font color=&quot;#994c00&quot;&gt;state&lt;/font&gt;[1][i];&lt;br&gt;&amp;nbsp;&amp;nbsp;&amp;nbsp; }&lt;br&gt;}&lt;/div&gt;" style="text;html=1;align=left;verticalAlign=middle;resizable=0;points=[];autosize=1;strokeColor=none;fillColor=none;" parent="1" vertex="1">
          <mxGeometry x="670" y="308" width="170" height="90" as="geometry" />
        </mxCell>
        <mxCell id="jBUWxnk9h5pIj459O3R6-43" value="" style="shape=flexArrow;endArrow=classic;html=1;rounded=0;" parent="1" edge="1">
          <mxGeometry width="50" height="50" relative="1" as="geometry">
            <mxPoint x="600" y="344.66" as="sourcePoint" />
            <mxPoint x="650" y="344.66" as="targetPoint" />
          </mxGeometry>
        </mxCell>
        <mxCell id="jBUWxnk9h5pIj459O3R6-44" value="" style="shape=flexArrow;endArrow=classic;html=1;rounded=0;" parent="1" edge="1">
          <mxGeometry width="50" height="50" relative="1" as="geometry">
            <mxPoint x="890" y="344.66" as="sourcePoint" />
            <mxPoint x="940" y="344.66" as="targetPoint" />
          </mxGeometry>
        </mxCell>
        <mxCell id="jBUWxnk9h5pIj459O3R6-45" value="" style="shape=flexArrow;endArrow=classic;html=1;rounded=0;" parent="1" edge="1">
          <mxGeometry width="50" height="50" relative="1" as="geometry">
            <mxPoint x="1520" y="340.00000000000006" as="sourcePoint" />
            <mxPoint x="1570" y="340.00000000000006" as="targetPoint" />
          </mxGeometry>
        </mxCell>
        <mxCell id="jBUWxnk9h5pIj459O3R6-59" value="" style="endArrow=none;dashed=1;html=1;dashPattern=1 3;strokeWidth=2;rounded=0;" parent="1" edge="1">
          <mxGeometry width="50" height="50" relative="1" as="geometry">
            <mxPoint x="320" y="560" as="sourcePoint" />
            <mxPoint x="320" y="120" as="targetPoint" />
          </mxGeometry>
        </mxCell>
        <mxCell id="jBUWxnk9h5pIj459O3R6-60" value="" style="endArrow=none;dashed=1;html=1;dashPattern=1 3;strokeWidth=2;rounded=0;" parent="1" edge="1">
          <mxGeometry width="50" height="50" relative="1" as="geometry">
            <mxPoint x="580" y="560" as="sourcePoint" />
            <mxPoint x="580" y="120" as="targetPoint" />
          </mxGeometry>
        </mxCell>
        <mxCell id="jBUWxnk9h5pIj459O3R6-61" value="" style="endArrow=none;dashed=1;html=1;dashPattern=1 3;strokeWidth=2;rounded=0;" parent="1" edge="1">
          <mxGeometry width="50" height="50" relative="1" as="geometry">
            <mxPoint x="959.58" y="565" as="sourcePoint" />
            <mxPoint x="959.58" y="125" as="targetPoint" />
          </mxGeometry>
        </mxCell>
        <mxCell id="jBUWxnk9h5pIj459O3R6-62" value="" style="endArrow=none;dashed=1;html=1;dashPattern=1 3;strokeWidth=2;rounded=0;" parent="1" edge="1">
          <mxGeometry width="50" height="50" relative="1" as="geometry">
            <mxPoint x="1219.58" y="565" as="sourcePoint" />
            <mxPoint x="1219.58" y="125" as="targetPoint" />
          </mxGeometry>
        </mxCell>
        <mxCell id="V3zjcGFH5lg-NHBFQzrP-1" value="STATE" style="swimlane;whiteSpace=wrap;html=1;" vertex="1" parent="1">
          <mxGeometry x="350" y="288" width="200" height="130" as="geometry" />
        </mxCell>
        <mxCell id="jBUWxnk9h5pIj459O3R6-50" value="current&amp;nbsp; state [64]" style="rounded=0;whiteSpace=wrap;html=1;fillColor=#fff2cc;strokeColor=#d6b656;" parent="V3zjcGFH5lg-NHBFQzrP-1" vertex="1">
          <mxGeometry x="10" y="30" width="140" height="40" as="geometry" />
        </mxCell>
        <mxCell id="V3zjcGFH5lg-NHBFQzrP-2" value="0" style="ellipse;whiteSpace=wrap;html=1;aspect=fixed;" vertex="1" parent="V3zjcGFH5lg-NHBFQzrP-1">
          <mxGeometry x="160" y="35" width="30" height="30" as="geometry" />
        </mxCell>
        <mxCell id="V3zjcGFH5lg-NHBFQzrP-3" value="next&amp;nbsp; state [64]" style="rounded=0;whiteSpace=wrap;html=1;fillColor=#fff2cc;strokeColor=#d6b656;" vertex="1" parent="V3zjcGFH5lg-NHBFQzrP-1">
          <mxGeometry x="10" y="80" width="140" height="40" as="geometry" />
        </mxCell>
        <mxCell id="V3zjcGFH5lg-NHBFQzrP-4" value="1" style="ellipse;whiteSpace=wrap;html=1;aspect=fixed;" vertex="1" parent="V3zjcGFH5lg-NHBFQzrP-1">
          <mxGeometry x="160" y="85" width="30" height="30" as="geometry" />
        </mxCell>
        <mxCell id="V3zjcGFH5lg-NHBFQzrP-5" value="" style="endArrow=classic;html=1;rounded=0;entryX=0.75;entryY=0;entryDx=0;entryDy=0;fillColor=#e51400;strokeColor=#B20000;" edge="1" parent="1" source="jBUWxnk9h5pIj459O3R6-50" target="jBUWxnk9h5pIj459O3R6-1">
          <mxGeometry width="50" height="50" relative="1" as="geometry">
            <mxPoint x="390" y="320" as="sourcePoint" />
            <mxPoint x="440" y="270" as="targetPoint" />
            <Array as="points">
              <mxPoint x="290" y="320" />
              <mxPoint x="290" y="180" />
              <mxPoint x="170" y="180" />
            </Array>
          </mxGeometry>
        </mxCell>
        <mxCell id="V3zjcGFH5lg-NHBFQzrP-6" value="" style="endArrow=classic;html=1;rounded=0;entryX=0.75;entryY=0;entryDx=0;entryDy=0;fillColor=#e51400;strokeColor=#B20000;" edge="1" parent="1" source="jBUWxnk9h5pIj459O3R6-50" target="jBUWxnk9h5pIj459O3R6-2">
          <mxGeometry width="50" height="50" relative="1" as="geometry">
            <mxPoint x="390" y="320" as="sourcePoint" />
            <mxPoint x="440" y="270" as="targetPoint" />
            <Array as="points">
              <mxPoint x="280" y="330" />
              <mxPoint x="280" y="260" />
              <mxPoint x="170" y="260" />
            </Array>
          </mxGeometry>
        </mxCell>
        <mxCell id="V3zjcGFH5lg-NHBFQzrP-7" value="" style="endArrow=classic;html=1;rounded=0;entryX=0.75;entryY=0;entryDx=0;entryDy=0;fillColor=#e51400;strokeColor=#B20000;" edge="1" parent="1" source="jBUWxnk9h5pIj459O3R6-50" target="jBUWxnk9h5pIj459O3R6-3">
          <mxGeometry width="50" height="50" relative="1" as="geometry">
            <mxPoint x="390" y="320" as="sourcePoint" />
            <mxPoint x="440" y="270" as="targetPoint" />
            <Array as="points">
              <mxPoint x="280" y="340" />
              <mxPoint x="170" y="340" />
            </Array>
          </mxGeometry>
        </mxCell>
        <mxCell id="V3zjcGFH5lg-NHBFQzrP-8" value="" style="endArrow=classic;html=1;rounded=0;entryX=0.75;entryY=0;entryDx=0;entryDy=0;fillColor=#e51400;strokeColor=#B20000;" edge="1" parent="1" source="jBUWxnk9h5pIj459O3R6-50" target="jBUWxnk9h5pIj459O3R6-4">
          <mxGeometry width="50" height="50" relative="1" as="geometry">
            <mxPoint x="390" y="320" as="sourcePoint" />
            <mxPoint x="440" y="270" as="targetPoint" />
            <Array as="points">
              <mxPoint x="280" y="350" />
              <mxPoint x="280" y="460" />
              <mxPoint x="170" y="460" />
            </Array>
          </mxGeometry>
        </mxCell>
        <mxCell id="V3zjcGFH5lg-NHBFQzrP-11" value="" style="endArrow=classic;html=1;rounded=0;exitX=0.25;exitY=1;exitDx=0;exitDy=0;fillColor=#60a917;strokeColor=#2D7600;" edge="1" parent="1" source="jBUWxnk9h5pIj459O3R6-1" target="V3zjcGFH5lg-NHBFQzrP-3">
          <mxGeometry width="50" height="50" relative="1" as="geometry">
            <mxPoint x="390" y="360" as="sourcePoint" />
            <mxPoint x="440" y="310" as="targetPoint" />
            <Array as="points">
              <mxPoint x="110" y="260" />
              <mxPoint x="40" y="260" />
              <mxPoint x="40" y="570" />
              <mxPoint x="450" y="570" />
              <mxPoint x="450" y="440" />
            </Array>
          </mxGeometry>
        </mxCell>
        <mxCell id="V3zjcGFH5lg-NHBFQzrP-13" value="" style="endArrow=classic;html=1;rounded=0;exitX=0.25;exitY=1;exitDx=0;exitDy=0;fillColor=#60a917;strokeColor=#2D7600;" edge="1" parent="1" source="jBUWxnk9h5pIj459O3R6-2" target="V3zjcGFH5lg-NHBFQzrP-3">
          <mxGeometry width="50" height="50" relative="1" as="geometry">
            <mxPoint x="120" y="250" as="sourcePoint" />
            <mxPoint x="440" y="418" as="targetPoint" />
            <Array as="points">
              <mxPoint x="110" y="340" />
              <mxPoint x="50" y="340" />
              <mxPoint x="50" y="560" />
              <mxPoint x="440" y="560" />
              <mxPoint x="440" y="440" />
            </Array>
          </mxGeometry>
        </mxCell>
        <mxCell id="V3zjcGFH5lg-NHBFQzrP-14" value="" style="endArrow=classic;html=1;rounded=0;exitX=0.25;exitY=1;exitDx=0;exitDy=0;fillColor=#60a917;strokeColor=#2D7600;" edge="1" parent="1" source="jBUWxnk9h5pIj459O3R6-3" target="V3zjcGFH5lg-NHBFQzrP-3">
          <mxGeometry width="50" height="50" relative="1" as="geometry">
            <mxPoint x="120" y="330" as="sourcePoint" />
            <mxPoint x="444" y="418" as="targetPoint" />
            <Array as="points">
              <mxPoint x="110" y="420" />
              <mxPoint x="60" y="420" />
              <mxPoint x="60" y="550" />
              <mxPoint x="430" y="550" />
              <mxPoint x="430" y="450" />
            </Array>
          </mxGeometry>
        </mxCell>
        <mxCell id="V3zjcGFH5lg-NHBFQzrP-15" value="" style="endArrow=classic;html=1;rounded=0;exitX=0.25;exitY=1;exitDx=0;exitDy=0;fillColor=#60a917;strokeColor=#2D7600;" edge="1" parent="1" source="jBUWxnk9h5pIj459O3R6-4" target="V3zjcGFH5lg-NHBFQzrP-3">
          <mxGeometry width="50" height="50" relative="1" as="geometry">
            <mxPoint x="390" y="360" as="sourcePoint" />
            <mxPoint x="440" y="310" as="targetPoint" />
            <Array as="points">
              <mxPoint x="110" y="540" />
              <mxPoint x="420" y="540" />
              <mxPoint x="420" y="440" />
            </Array>
          </mxGeometry>
        </mxCell>
        <mxCell id="V3zjcGFH5lg-NHBFQzrP-16" value="STATE" style="swimlane;whiteSpace=wrap;html=1;" vertex="1" parent="1">
          <mxGeometry x="990" y="288" width="200" height="130" as="geometry" />
        </mxCell>
        <mxCell id="V3zjcGFH5lg-NHBFQzrP-17" value="current&amp;nbsp; state [64]" style="rounded=0;whiteSpace=wrap;html=1;fillColor=#d5e8d4;strokeColor=#82b366;" vertex="1" parent="V3zjcGFH5lg-NHBFQzrP-16">
          <mxGeometry x="10" y="30" width="140" height="40" as="geometry" />
        </mxCell>
        <mxCell id="V3zjcGFH5lg-NHBFQzrP-18" value="0" style="ellipse;whiteSpace=wrap;html=1;aspect=fixed;" vertex="1" parent="V3zjcGFH5lg-NHBFQzrP-16">
          <mxGeometry x="160" y="35" width="30" height="30" as="geometry" />
        </mxCell>
        <mxCell id="V3zjcGFH5lg-NHBFQzrP-19" value="next&amp;nbsp; state [64]" style="rounded=0;whiteSpace=wrap;html=1;fillColor=#d5e8d4;strokeColor=#82b366;" vertex="1" parent="V3zjcGFH5lg-NHBFQzrP-16">
          <mxGeometry x="10" y="80" width="140" height="40" as="geometry" />
        </mxCell>
        <mxCell id="V3zjcGFH5lg-NHBFQzrP-20" value="1" style="ellipse;whiteSpace=wrap;html=1;aspect=fixed;" vertex="1" parent="V3zjcGFH5lg-NHBFQzrP-16">
          <mxGeometry x="160" y="85" width="30" height="30" as="geometry" />
        </mxCell>
      </root>
    </mxGraphModel>
  </diagram>
</mxfile>
